<?xml version="1.0" encoding="utf-8"?>
<!-- Generator: Adobe Illustrator 25.2.0, SVG Export Plug-In . SVG Version: 6.00 Build 0)  -->
<svg version="1.1" id="Layer_1" xmlns="http://www.w3.org/2000/svg" xmlns:xlink="http://www.w3.org/1999/xlink" x="0px" y="0px"
	 viewBox="0 0 1015 787" style="enable-background:new 0 0 1015 787;" xml:space="preserve">
<style type="text/css">
	.st0{fill-rule:evenodd;clip-rule:evenodd;fill:#FEFEFE;}
	.st1{fill-rule:evenodd;clip-rule:evenodd;fill:#0A0A0A;}
	.st2{fill-rule:evenodd;clip-rule:evenodd;fill:#FCFCFC;}
	.st3{fill-rule:evenodd;clip-rule:evenodd;fill:#A0A0A0;}
	.st4{fill-rule:evenodd;clip-rule:evenodd;fill:#F9F9F9;}
	.st5{fill-rule:evenodd;clip-rule:evenodd;fill:#FBFBFB;}
	.st6{fill-rule:evenodd;clip-rule:evenodd;fill:#FDFDFD;}
	.st7{fill-rule:evenodd;clip-rule:evenodd;fill:#5B5B5B;}
	.st8{fill-rule:evenodd;clip-rule:evenodd;fill:#5C5C5C;}
	.st9{fill-rule:evenodd;clip-rule:evenodd;fill:#1E1E1E;}
	.st10{fill-rule:evenodd;clip-rule:evenodd;fill:#8A8A8A;}
	.st11{fill-rule:evenodd;clip-rule:evenodd;fill:#FAFAFA;}
	.st12{font-family:'FrenchScriptMT';}
	.st13{font-size:220px;}
</style>
<g>
	<path class="st0" d="M-252.3-33.7c507.9,0,1015.8,0,1523.6,0c0,290.8,0,581.6,0,872.5c-507.9,0-1015.8,0-1523.6,0
		C-252.3,547.9-252.3,257.1-252.3-33.7z"/>
</g>
<g>
	<path class="st1" d="M220.5,27.5c2.7-0.2,5.4,0,8,0.5c17.7,5.8,35.4,11.8,53,18c32.7,0.3,65.3,0.7,98,1c11.5,8.2,23.2,16.2,35,24
		c3.4,2.4,3.8,5,1,8c-21.7,5.7-43.3,11.3-65,17c-14.8,16.5-30,32.6-45.5,48.5c-0.6,0.9-0.5,1.8,0.5,2.5c88.6,73,177,146.3,265,220
		C710.1,438.4,849.6,509.9,989,581.5c1.4,3.7,0.2,5.7-3.5,6c-50.3-6.8-100.6-13-151-18.5c36.7,24.3,73.3,48.7,110,73
		c4.2,3.5,3.9,6.4-1,8.5c-35.7-9.3-71.4-18.5-107-27.5c44.2,26.7,88.4,53.5,132.5,80.5c0.7,1.3,0.7,2.7,0,4
		c-4.4,1.1-8.9,1.3-13.5,0.5c-162.9-25.3-325.8-50.8-488.5-76.5c-16.4,31-31.9,62.5-46.5,94.5c14.5,15.5,29.3,30.6,44.5,45.5
		c0.6,2.4-0.2,4.2-2.5,5.5c-91.4,1-182.7,0.7-274-1c-1.4-4.3,0.2-7,5-8c31-13,62-26,93-39c24.8-19.3,49.5-38.8,74-58.5
		c-93-97.8-186.5-195.1-280.5-292c-1-1.7-1.5-3.5-1.5-5.5c2.9-40.7,5.9-81.4,9-122c-0.4-1.2-0.9-2.4-1.5-3.5
		c-19.4-21.6-38.2-43.6-56.5-66C64,137.6,98.7,93.7,133.5,50C162.8,42.9,191.8,35.4,220.5,27.5z"/>
</g>
<g>
	<path class="st2" d="M220.5,35.5c2.7-0.2,5.4,0,8,0.5c17,5.4,33.8,11.3,50.5,17.5c5.4,28.3,10.1,56.6,14,85
		C243.8,110.8,194.6,83,145.5,55C170.6,48.6,195.6,42.1,220.5,35.5z"/>
</g>
<g>
	<path class="st3" d="M368.5,55.5c-23.7-1.3-47.3-1.3-71,0c-0.8-0.3-1.5-0.8-2-1.5c24.7-0.8,49.3-0.7,74,0.5
		C369.4,55.1,369,55.4,368.5,55.5z"/>
</g>
<g>
	<path class="st2" d="M297.5,55.5c23.7-1.3,47.3-1.3,71,0c-6.7,10.7-13.8,21-21.5,31C330.6,76,314.1,65.7,297.5,55.5z"/>
</g>
<g>
	<path class="st4" d="M377.5,55.5c9.1,5.9,18.1,12.1,27,18.5c-14.8,3.5-29.4,7.4-44,11.5c-0.7-0.3-1.3-0.7-2-1
		C365.1,75,371.4,65.3,377.5,55.5z"/>
</g>
<g>
	<path class="st5" d="M287.5,58.5c18.6,11,36.9,22.5,55,34.5c-13.1,14.8-26.6,29.3-40.5,43.5C296.6,110.6,291.8,84.6,287.5,58.5z"/>
</g>
<g>
	<path class="st6" d="M137.5,59.5c51,28.8,102,57.7,153,86.5c-64,31.6-128,63.1-192,94.5c-1.1-1.6-1.3-3.2-0.5-5
		C111.2,176.8,124.3,118.1,137.5,59.5z"/>
</g>
<g>
	<path class="st2" d="M126.5,69.5c0.6,0.2,0.9,0.7,1,1.5C114.8,127.2,102,183.4,89,239.5c-16.6-19.1-33.1-38.3-49.5-57.5
		C68.4,144.4,97.4,106.9,126.5,69.5z"/>
</g>
<g>
	<path class="st6" d="M297.5,150.5C383.3,221.1,469,292,554.5,363c-150.7-38-301.4-76.7-452-116
		C167.8,215.3,232.8,183.2,297.5,150.5z"/>
</g>
<g>
	<path class="st0" d="M94.5,253.5c147.7,37.6,295.4,75.5,443,113.5c-150,0.5-300,0.7-450,0.5C89.4,329.5,91.7,291.5,94.5,253.5z"/>
</g>
<g>
	<path class="st7" d="M485.5,375.5c-129.8-0.3-259.5,0-389,1c-0.5-0.1-0.9-0.4-1-1C225.7,374.2,355.7,374.2,485.5,375.5z"/>
</g>
<g>
	<path class="st8" d="M493.5,375.5c23.5-1.3,47.2-1.3,71,0c-0.1,0.6-0.5,0.9-1,1C540.3,375.5,517,375.2,493.5,375.5z"/>
</g>
<g>
	<path class="st0" d="M96.5,376.5c129.5-1,259.2-1.3,389-1c0,61.7,0,123.3,0,185c-38.3,0.2-76.7,0-115-0.5
		C279.3,498.6,188,437.4,96.5,376.5z"/>
</g>
<g>
	<path class="st9" d="M493.5,375.5c-0.3,56.5,0,112.8,1,169c-0.3,0.8-0.8,1.5-1.5,2C492.2,489.3,492.3,432.3,493.5,375.5z"/>
</g>
<g>
	<path class="st0" d="M493.5,375.5c23.5-0.3,46.8,0,70,1c-23,56-46,112-69,168C493.5,488.3,493.2,432,493.5,375.5z"/>
</g>
<g>
	<path class="st0" d="M571.5,378.5c55.1,53.3,110.1,106.8,165,160.5c-78.3,7.1-156.6,13.9-235,20.5c-1.7-0.3-3.3-0.7-5-1
		C521.5,498.5,546.5,438.5,571.5,378.5z"/>
</g>
<g>
	<path class="st2" d="M592.5,388.5c0.1-0.5,0.4-0.9,1-1c87,44.5,174,89,261,133.5c-35.8,6.6-71.8,12.3-108,17
		C695.3,488,644,438.1,592.5,388.5z"/>
</g>
<g>
	<path class="st10" d="M105.5,391.5c-0.7,0-1,0.3-1,1c-1.5-1-2.8-2.1-4-3.5C102.5,389.1,104.1,389.9,105.5,391.5z"/>
</g>
<g>
	<path class="st6" d="M105.5,391.5c116.6,78.3,233.3,156.6,350,235c-28.3,12.8-56.7,25.7-85,38.5c-1.3,0.7-2.7,0.7-4,0
		c-87.5-90.7-174.9-181.5-262-272.5C104.5,391.8,104.8,391.5,105.5,391.5z"/>
</g>
<g>
	<path class="st4" d="M863.5,527.5c1.7-0.2,3.4,0,5,0.5c31.3,16,62.7,32,94,48c-3,0.7-6,0.7-9,0c-44-5.7-88-11.3-132-17
		c-19.1-4.6-38.1-9.6-57-15C797.7,538.7,830.7,533.2,863.5,527.5z"/>
</g>
<g>
	<path class="st2" d="M729.5,547.5c2-0.2,4,0,6,0.5c-32.2,34.3-64.5,68.5-97,102.5c-45.2-27.7-90.5-55.2-136-82.5
		C578.2,560.9,653.8,554,729.5,547.5z"/>
</g>
<g>
	<path class="st2" d="M744.5,548.5c19.9,19.6,39.3,39.9,58,61c-50.3,13.3-100.6,26.2-151,38.5c30.5-32.8,61.3-65.3,92.5-97.5
		C744.5,549.9,744.6,549.2,744.5,548.5z"/>
</g>
<g>
	<path class="st5" d="M758.5,551.5c0.2-0.6,0.7-0.9,1.5-1c18.8,5.4,37.6,10.6,56.5,15.5c34.8,23.6,69.8,46.9,105,70
		c-36.5-8.4-72.8-17.7-109-28C794.3,589.3,776.3,570.4,758.5,551.5z"/>
</g>
<g>
	<path class="st6" d="M383.5,569.5c33.2-1,66.5-1.3,100-1c-6.7,17.8-13.8,35.5-21.5,53C436,603.8,409.9,586.4,383.5,569.5z"/>
</g>
<g>
	<path class="st11" d="M491.5,570.5c42.3,25.5,84.6,51,127,76.5c-49.9-6.6-99.5-14.4-149-23.5C476.8,605.8,484.2,588.1,491.5,570.5z
		"/>
</g>
<g>
	<path class="st5" d="M805.5,616.5c3.6-0.3,7,0.5,10,2.5c43.5,26.6,87.2,52.9,131,79c-95.4-14.1-190.7-28.8-286-44
		C709,641.6,757.3,629.1,805.5,616.5z"/>
</g>
<g>
	<path class="st5" d="M453.5,635.5c0.9-0.1,1.5,0.2,2,1c-13.9,27.6-27.5,55.2-41,83c-14-15.3-27.7-31-41-47
		C400.2,660.1,426.9,647.8,453.5,635.5z"/>
</g>
<g>
	<path class="st5" d="M367.5,679.5c1.9,0.4,3.4,1.4,4.5,3c12.5,14.5,25,29,37.5,43.5c-22.1,12.6-44.1,25.5-66,38.5
		c-0.3-0.3-0.7-0.7-1-1C351.2,735.6,359.6,707.6,367.5,679.5z"/>
</g>
<g>
	<path class="st2" d="M358.5,681.5c-7.7,28.1-15.9,56.4-24.5,85c-13.3-10.8-26.1-22.1-38.5-34C316.3,715.3,337.3,698.3,358.5,681.5z
		"/>
</g>
<g>
	<path class="st5" d="M412.5,732.5c1.1-0.1,2.1,0,3,0.5c12,12,24,24,36,36c-33.7,0.7-67.3,0.7-101,0
		C371.4,757.1,392.1,744.9,412.5,732.5z"/>
</g>
<g>
	<path class="st11" d="M286.5,736.5c13.1,10.6,26.1,21.4,39,32.5c-38,0.7-76,0.7-114,0C236.6,758.2,261.6,747.4,286.5,736.5z"/>
</g>
<text transform="matrix(1 0 0 1 492.4802 272.845)" class="st12 st13">Raven</text>
</svg>
